<?xml version="1.0" standalone="no"?>
<!DOCTYPE svg PUBLIC "-//W3C//DTD SVG 20010904//EN"
 "http://www.w3.org/TR/2001/REC-SVG-20010904/DTD/svg10.dtd">
<svg version="1.0" xmlns="http://www.w3.org/2000/svg"
 width="700.000000pt" height="700.000000pt" viewBox="0 0 700.000000 700.000000"
 preserveAspectRatio="xMidYMid meet">
<metadata>
Created by potrace 1.11, written by Peter Selinger 2001-2013
</metadata>
<g transform="translate(0.000000,700.000000) scale(0.100000,-0.100000)"
fill="#000000" stroke="none">
<path d="M32 6937 c-6 -7 -15 -32 -22 -57 -8 -33 -10 -987 -8 -3435 3 -2894 5
-3394 17 -3418 l14 -27 3463 0 3464 0 17 27 c17 26 18 190 18 3443 0 3029 -2
3418 -15 3445 l-15 30 -3461 3 c-2781 2 -3464 0 -3472 -11z m4068 -2057 c168
-18 480 -103 480 -132 0 -8 -137 -314 -161 -360 -9 -16 -12 -16 -54 2 -44 19
-45 19 -55 0 -11 -20 -11 -20 -48 -1 -101 50 -338 110 -438 111 -99 0 -232
-27 -311 -65 -93 -43 -155 -102 -194 -180 -26 -54 -31 -75 -32 -147 -3 -182
78 -264 417 -426 401 -192 536 -340 567 -625 33 -290 -78 -561 -298 -727 -178
-135 -424 -207 -743 -217 -278 -9 -553 26 -770 98 -95 32 -200 84 -200 99 0 9
168 361 176 369 2 2 21 -3 41 -13 37 -17 38 -17 51 3 14 20 15 20 100 -23 430
-216 914 -163 1049 113 25 49 28 67 28 151 0 197 -59 255 -487 481 -198 105
-251 139 -321 206 -136 130 -195 322 -168 550 50 420 365 683 876 732 128 12
383 12 495 1z"/>
</g>
</svg>
